<?xml version="1.0" encoding="UTF-8"?>
<svg width="24px" height="24px" viewBox="0 0 24 24" version="1.1" xmlns="http://www.w3.org/2000/svg" xmlns:xlink="http://www.w3.org/1999/xlink">
    <title>livephoto_icon</title>
    <g id="Page-1" stroke="none" stroke-width="1" fill="none" fill-rule="evenodd">
        <g id="livephoto_icon" fill="#4CD964" fill-rule="nonzero">
            <path d="M12,2 C17.5228,2 22,6.47715 22,12 C22,17.5228 17.5228,22 12,22 C6.47715,22 2,17.5228 2,12 C2,6.47715 6.47715,2 12,2 Z M12,4 C7.58172,4 4,7.58172 4,12 C4,16.4183 7.58172,20 12,20 C16.4183,20 20,16.4183 20,12 C20,7.58172 16.4183,4 12,4 Z M10,8.5 L10,15.5 C10,16.0523 10.4477,16.5 11,16.5 C11.1659,16.5 11.3295,16.4632 11.4766,16.3915 L16.9766,13.3915 C17.4643,13.1219 17.6373,12.5249 17.3677,12.0373 C17.2897,11.8892 17.1747,11.7647 17.0332,11.6746 L11.5332,8.17463 C11.0587,7.88742 10.4567,8.0336 10.1695,8.50812 C10.0589,8.68479 10,8.89014 10,9.5 Z M12,9.33899 L15.1336,11.5 L12,13.661 L12,9.33899 Z" id="Shape"></path>
        </g>
    </g>
</svg> 