<?xml version="1.0" encoding="UTF-8"?>
<svg width="18px" height="18px" viewBox="0 0 18 18" version="1.1" xmlns="http://www.w3.org/2000/svg" xmlns:xlink="http://www.w3.org/1999/xlink">
    <title>photos_icon_01</title>
    <g id="Page-1" stroke="none" stroke-width="1" fill="none" fill-rule="evenodd">
        <g id="photos_icon_01" fill="#1F2024" fill-rule="nonzero">
            <path d="M15.75,2.25 C16.1642,2.25 16.5,2.58579 16.5,3 L16.5,15 C16.5,15.4142 16.1642,15.75 15.75,15.75 L2.25,15.75 C1.83579,15.75 1.5,15.4142 1.5,15 L1.5,3 C1.5,2.58579 1.83579,2.25 2.25,2.25 L15.75,2.25 Z M15,3.75 L3,3.75 L3,14.25 L15,14.25 L15,3.75 Z" id="Rectangle"></path>
            <path d="M6,9 C7.10457,9 8,8.10457 8,7 C8,5.89543 7.10457,5 6,5 C4.89543,5 4,5.89543 4,7 C4,8.10457 4.89543,9 6,9 Z" id="Oval"></path>
            <path d="M4,12 L14,12 L14,13 L4,13 L4,12 Z" id="Rectangle"></path>
            <path d="M4,10 L14,10 L14,11 L4,11 L4,10 Z" id="Rectangle"></path>
        </g>
    </g>
</svg> 