<?xml version="1.0" encoding="UTF-8"?>
<svg width="24px" height="24px" viewBox="0 0 24 24" version="1.1" xmlns="http://www.w3.org/2000/svg" xmlns:xlink="http://www.w3.org/1999/xlink">
    <title>screenshot_icon</title>
    <g id="Page-1" stroke="none" stroke-width="1" fill="none" fill-rule="evenodd">
        <g id="screenshot_icon" fill="#AF52DE" fill-rule="nonzero">
            <path d="M4,3 C2.89543,3 2,3.89543 2,5 L2,19 C2,20.1046 2.89543,21 4,21 L20,21 C21.1046,21 22,20.1046 22,19 L22,5 C22,3.89543 21.1046,3 20,3 L4,3 Z M4,5 L20,5 L20,19 L4,19 L4,5 Z M8,7 C7.44772,7 7,7.44772 7,8 L7,16 C7,16.5523 7.44772,17 8,17 L16,17 C16.5523,17 17,16.5523 17,16 L17,8 C17,7.44772 16.5523,7 16,7 L8,7 Z M9,9 L15,9 L15,15 L9,15 L9,9 Z" id="Shape"></path>
            <path d="M18,7 C18.5523,7 19,7.44772 19,8 C19,8.55228 18.5523,9 18,9 C17.4477,9 17,8.55228 17,8 C17,7.44772 17.4477,7 18,7 Z" id="Path"></path>
        </g>
    </g>
</svg> 